<svg width="16.000000" height="16.000000" viewBox="0 0 16 16" fill="none" xmlns="http://www.w3.org/2000/svg" xmlns:xlink="http://www.w3.org/1999/xlink">
	<desc>
			Created with Pixso.
	</desc>
	<defs>
		<clipPath id="clip46_1117">
			<rect id="icons" width="16.000000" height="16.000000" transform="translate(0.000000 -0.611084)" fill="white" fill-opacity="0"/>
		</clipPath>
	</defs>
	<rect id="icons" width="16.000000" height="16.000000" transform="translate(0.000000 -0.611084)" fill="#B6B4B5" fill-opacity="0"/>
	<g clip-path="url(#clip46_1117)">
		<path id="Vector" d="M15.7 13.68L12.6 10.58C13.5 9.38 14 7.98 14 6.38C14 2.48 10.9 -0.62 7 -0.62C3.1 -0.62 0 2.48 0 6.38C0 10.28 3.1 13.38 7 13.38C8.6 13.38 10 12.88 11.2 11.98L14.3 15.08C14.5 15.28 14.7 15.38 15 15.38C15.6 15.38 16 14.98 16 14.38C16 14.18 15.9 13.88 15.7 13.68ZM2 6.38C2 3.58 4.19 1.38 7 1.38C9.8 1.38 12 3.58 12 6.38C12 9.18 9.8 11.38 7 11.38C4.19 11.38 2 9.18 2 6.38Z" fill="#000000" fill-opacity="1.000000" fill-rule="nonzero"/>
	</g>
</svg>
